# Blender 4.2.3 LTS
# www.blender.org
mtllib miniature_damaged_ship_collider.mtl
o miniatures_ship_damaged_collider
v 0.381806 0.270061 -0.151269
v 0.381806 0.000337 -0.151269
v 0.381806 0.270061 0.151269
v 0.381806 0.000337 0.151269
v -0.485604 0.270061 -0.151269
v -0.485604 0.000337 -0.151269
v -0.485604 0.270061 0.151269
v -0.485604 0.000337 0.151269
v 0.215332 -0.097374 0.109205
v -0.256600 -0.097374 0.100223
v -0.357903 -0.097374 -0.079612
v 0.215332 -0.063443 -0.079612
v -0.051899 -0.097374 0.112565
v -0.315326 -0.097374 0.000000
v -0.051899 -0.097374 -0.079612
v 0.071759 -0.097374 -0.061702
v 0.065036 -0.097374 -0.062701
v -0.154249 -0.097374 -0.071397
v -0.103074 -0.023440 0.067027
v -0.125145 -0.039750 -0.031351
v -0.144591 -0.083421 -0.045273
v -0.170776 -0.097374 -0.043686
vn -0.0000 1.0000 -0.0000
vn -0.0000 -0.0000 1.0000
vn -1.0000 -0.0000 -0.0000
vn 0.0828 -0.5886 0.8042
vn 0.0829 -0.5886 0.8042
vn 0.0830 -0.5886 0.8042
vn 1.0000 -0.0000 -0.0000
vn -0.0000 -0.0000 -1.0000
vn -0.0000 -1.0000 -0.0000
vn 0.1085 -0.8543 -0.5084
vn -0.4842 -0.8690 0.1018
vn 0.5919 -0.7929 -0.1447
vn 0.5938 -0.7892 -0.1567
vn 0.5925 -0.7920 -0.1475
vn 0.0950 -0.7481 -0.6568
vn 0.0830 -0.5886 0.8041
vn 0.0830 -0.5889 0.8039
vn 0.0829 -0.5889 0.8039
vn 0.0831 -0.5889 0.8039
vn -0.0000 -0.5914 -0.8064
vn -0.4843 -0.8690 0.1016
vn -0.4844 -0.8689 0.1016
vn 0.2475 -0.9689 -0.0007
vn 0.2475 -0.9689 0.0008
vn 0.2476 -0.9689 -0.0019
vn 0.4243 -0.8930 -0.1497
vn 0.4242 -0.8919 -0.1565
vn 0.4244 -0.8916 -0.1581
vn -0.3279 -0.9043 -0.2732
vn -0.3278 -0.9044 -0.2732
vn -0.3278 -0.9043 -0.2734
vn -0.3279 -0.9043 -0.2734
vn -0.3280 -0.9043 -0.2734
vn 0.0818 -0.8640 0.4968
vn 0.0819 -0.8640 0.4968
vn 0.0968 -0.7530 -0.6509
vn 0.9202 -0.3631 -0.1462
vn 0.2654 -0.3981 0.8781
vn 0.4649 -0.8408 0.2772
vn 0.2707 -0.1764 0.9464
vn 0.2707 -0.1761 0.9464
vn 0.2707 -0.1767 0.9463
vt 0.875000 0.500000
vt 0.625000 0.750000
vt 0.625000 0.500000
vt 0.375000 1.000000
vt 0.375000 0.750000
vt 0.625000 0.000000
vt 0.375000 0.250000
vt 0.375000 0.000000
vt 0.375000 0.906250
vt 0.375000 0.500000
vt 0.625000 0.250000
vt 0.375000 0.625000
vt 0.250000 0.750000
vt 0.250000 0.625000
vt 0.375000 0.375000
vt 0.375000 0.125000
vt 0.250000 0.500000
vt 0.375000 0.875000
vt 0.125000 0.625000
vt 0.187500 0.625000
vt 0.187500 0.750000
vt 0.218750 0.750000
vt 0.125000 0.500000
vt 0.193398 0.750000
vt 0.193591 0.556409
vt 0.199298 0.565836
vt 0.375000 0.937500
vt 0.375000 0.931602
vt 0.375000 0.947592
vt 0.125000 0.750000
vt 0.177408 0.750000
vt 0.875000 0.750000
vt 0.625000 1.000000
s 0
usemtl Material.010
f 5/1/1 3/2/1 1/3/1
f 3/2/2 8/4/2 4/5/2
f 7/6/3 6/7/3 8/8/3
f 4/5/4 8/4/5 19/9/6
f 1/3/7 4/5/7 2/10/7
f 5/11/8 2/10/8 6/7/8
f 16/12/9 13/13/9 17/14/9
f 2/10/10 12/10/10 15/15/10
f 14/16/11 8/8/11 11/7/11
f 9/5/12 16/12/13 12/10/14
f 12/10/15 17/14/15 15/17/15
f 8/4/16 10/4/16 19/9/16
f 19/9/17 13/18/18 9/5/19
f 19/9/4 9/5/5 4/5/5
f 16/12/9 9/5/9 13/13/9
f 11/7/20 6/7/20 15/15/20
f 6/7/20 2/10/20 15/15/20
f 10/8/11 8/8/11 14/16/11
f 8/8/21 6/7/22 11/7/21
f 12/10/23 2/10/24 4/5/25
f 4/5/26 9/5/27 12/10/28
f 14/19/29 20/20/30 18/21/30
f 20/20/31 17/14/32 19/22/33
f 17/14/32 13/13/32 19/22/32
f 14/19/34 11/23/35 15/17/35
f 15/17/34 17/14/34 20/20/34
f 12/10/36 16/12/36 17/14/36
f 21/24/37 18/21/37 20/20/37
f 20/20/37 19/22/37 21/24/37
f 22/25/38 15/17/38 21/26/38
f 20/20/38 22/25/38 21/26/38
f 18/27/39 21/28/39 22/29/39
f 19/9/39 22/29/39 21/28/39
f 10/30/9 14/19/9 22/31/9
f 5/1/1 7/32/1 3/2/1
f 3/2/2 7/33/2 8/4/2
f 7/6/3 5/11/3 6/7/3
f 1/3/7 3/2/7 4/5/7
f 5/11/8 1/3/8 2/10/8
f 22/25/40 14/19/41 15/17/42
f 15/17/38 20/20/38 21/26/38
f 20/20/38 14/19/38 22/25/38
f 19/9/39 10/4/39 22/29/39
