# Blender 4.2.3 LTS
# www.blender.org
mtllib miniature_imperial_damaged_ship_collider.mtl
o miniatures_imperial_ship_damaged_collider
v 0.381806 0.283443 -0.190627
v 0.381806 0.000337 -0.190627
v 0.381806 0.283443 0.192202
v 0.381806 0.000337 0.192202
v -0.485604 0.283443 -0.190627
v -0.485604 0.000337 -0.190627
v -0.485604 0.283443 0.192202
v -0.485604 0.000337 0.192202
v 0.252738 -0.097374 0.109205
v -0.198791 -0.097374 0.100223
v -0.300094 -0.097374 -0.102024
v 0.252738 -0.063443 -0.102024
v -0.014493 -0.097374 0.112565
v -0.257517 -0.097374 -0.022412
v -0.014493 -0.097374 -0.102024
v 0.109165 -0.097374 -0.084114
v 0.102442 -0.097374 -0.085113
v -0.116843 -0.097374 -0.093809
v -0.065668 -0.023440 0.067027
v -0.087739 -0.039750 -0.053763
v -0.107185 -0.083421 -0.067685
v -0.133370 -0.097374 -0.066098
vn -0.0000 1.0000 -0.0000
vn -0.0000 -0.0000 1.0000
vn -1.0000 -0.0000 -0.0000
vn 0.0659 -0.6561 0.7518
vn 0.0931 -0.6568 0.7483
vn 0.0699 -0.6562 0.7514
vn 1.0000 -0.0000 -0.0000
vn -0.0000 -0.0000 -1.0000
vn -0.0000 -1.0000 -0.0000
vn 0.1113 -0.8763 -0.4687
vn -0.4041 -0.9127 0.0600
vn -0.4018 -0.9140 0.0560
vn -0.4011 -0.9144 0.0549
vn 0.5942 -0.7949 -0.1227
vn 0.5962 -0.7910 -0.1373
vn 0.5948 -0.7930 -0.1320
vn 0.0950 -0.7481 -0.6568
vn 0.1620 -0.6473 0.7448
vn 0.1651 -0.6476 0.7439
vn 0.1531 -0.6463 0.7475
vn 0.0831 -0.5889 0.8039
vn 0.0828 -0.5889 0.8040
vn 0.0629 -0.8078 0.5861
vn 0.0966 -0.7922 0.6026
vn 0.1106 -0.7846 0.6101
vn -0.0000 -0.6717 -0.7408
vn -0.4196 -0.9071 0.0325
vn -0.4255 -0.9039 0.0427
vn -0.4219 -0.9059 0.0362
vn -0.3326 -0.9375 0.1027
vn -0.3306 -0.9385 0.0993
vn -0.3320 -0.9378 0.1017
vn 0.3366 -0.9416 -0.0048
vn 0.3379 -0.9410 0.0188
vn 0.3384 -0.9408 -0.0214
vn 0.5536 -0.8191 -0.1507
vn 0.5528 -0.8217 -0.1388
vn 0.5529 -0.8220 -0.1364
vn -0.3332 -0.9043 -0.2667
vn -0.3164 -0.9071 -0.2776
vn -0.3356 -0.9040 -0.2649
vn -0.3254 -0.8931 -0.3106
vn -0.3390 -0.8889 -0.3080
vn -0.3126 -0.8970 -0.3126
vn -0.3443 -0.9020 -0.2603
vn -0.3476 -0.9027 -0.2536
vn -0.3500 -0.9031 -0.2489
vn 0.0890 -0.8640 0.4956
vn 0.0819 -0.8640 0.4968
vn 0.0907 -0.8640 0.4953
vn 0.0818 -0.8640 0.4968
vn 0.0967 -0.7529 -0.6510
vn 0.9202 -0.3631 -0.1462
vn 0.9206 -0.3723 -0.1179
vn 0.2654 -0.3981 0.8781
vn 0.4649 -0.8409 0.2772
vn 0.4681 -0.8518 0.2350
vn 0.2923 -0.1541 0.9438
vn 0.9348 -0.1473 -0.3232
vn -0.9431 -0.1608 0.2909
vn 0.3010 -0.4215 0.8554
vn 0.5135 -0.8340 0.2020
vt 0.875000 0.500000
vt 0.625000 0.750000
vt 0.625000 0.500000
vt 0.375000 1.000000
vt 0.375000 0.750000
vt 0.625000 0.000000
vt 0.375000 0.250000
vt 0.375000 0.000000
vt 0.375000 0.906250
vt 0.375000 0.500000
vt 0.625000 0.250000
vt 0.375000 0.625000
vt 0.250000 0.750000
vt 0.250000 0.625000
vt 0.375000 0.375000
vt 0.375000 0.125000
vt 0.250000 0.500000
vt 0.375000 0.875000
vt 0.125000 0.625000
vt 0.187500 0.625000
vt 0.187500 0.750000
vt 0.218750 0.750000
vt 0.125000 0.500000
vt 0.193398 0.750000
vt 0.193591 0.556409
vt 0.199298 0.565836
vt 0.375000 0.937500
vt 0.375000 0.931602
vt 0.375000 0.947592
vt 0.125000 0.750000
vt 0.177408 0.750000
vt 0.875000 0.750000
vt 0.625000 1.000000
s 0
usemtl Material.004
f 5/1/1 3/2/1 1/3/1
f 3/2/2 8/4/2 4/5/2
f 7/6/3 6/7/3 8/8/3
f 4/5/4 8/4/5 19/9/6
f 1/3/7 4/5/7 2/10/7
f 5/11/8 2/10/8 6/7/8
f 16/12/9 13/13/9 17/14/9
f 2/10/10 12/10/10 15/15/10
f 14/16/11 8/8/12 11/7/13
f 9/5/14 16/12/15 12/10/16
f 12/10/17 17/14/17 15/17/17
f 8/4/18 10/4/19 19/9/20
f 19/9/21 13/18/22 9/5/21
f 19/9/23 9/5/24 4/5/25
f 16/12/9 9/5/9 13/13/9
f 11/7/26 6/7/26 15/15/26
f 6/7/26 2/10/26 15/15/26
f 10/8/27 8/8/28 14/16/29
f 8/8/30 6/7/31 11/7/32
f 12/10/33 2/10/34 4/5/35
f 4/5/36 9/5/37 12/10/38
f 14/19/39 20/20/40 18/21/41
f 20/20/42 17/14/43 19/22/44
f 17/14/45 13/13/46 19/22/47
f 14/19/48 11/23/49 15/17/50
f 15/17/51 17/14/51 20/20/51
f 12/10/52 16/12/52 17/14/52
f 21/24/53 18/21/53 20/20/53
f 20/20/54 19/22/54 21/24/54
f 22/25/55 15/17/55 21/26/55
f 20/20/55 22/25/55 21/26/55
f 18/27/56 21/28/56 22/29/56
f 19/9/57 22/29/57 21/28/57
f 10/30/9 14/19/9 22/31/9
f 5/1/1 7/32/1 3/2/1
f 3/2/2 7/33/2 8/4/2
f 7/6/3 5/11/3 6/7/3
f 1/3/7 3/2/7 4/5/7
f 5/11/8 1/3/8 2/10/8
f 22/25/58 14/19/59 15/17/60
f 15/17/55 20/20/55 21/26/55
f 20/20/61 14/19/61 22/25/61
f 19/9/62 10/4/62 22/29/62
