<?xml version="1.0" encoding="UTF-8" standalone="no"?>
<!-- Created with Inkscape (http://www.inkscape.org/) -->

<svg
   width="165.25987mm"
   height="76.001762mm"
   viewBox="0 0 165.25987 76.001762"
   version="1.1"
   id="svg1"
   xml:space="preserve"
   inkscape:version="1.3.2 (091e20e, 2023-11-25, custom)"
   sodipodi:docname="imperial_ship.svg"
   xmlns:inkscape="http://www.inkscape.org/namespaces/inkscape"
   xmlns:sodipodi="http://sodipodi.sourceforge.net/DTD/sodipodi-0.dtd"
   xmlns="http://www.w3.org/2000/svg"
   xmlns:svg="http://www.w3.org/2000/svg"><sodipodi:namedview
     id="namedview1"
     pagecolor="#ffffff"
     bordercolor="#000000"
     borderopacity="0.25"
     inkscape:showpageshadow="2"
     inkscape:pageopacity="0.0"
     inkscape:pagecheckerboard="0"
     inkscape:deskcolor="#d1d1d1"
     inkscape:document-units="mm"
     inkscape:zoom="0.40378396"
     inkscape:cx="-246.4189"
     inkscape:cy="303.38005"
     inkscape:window-width="1600"
     inkscape:window-height="837"
     inkscape:window-x="-8"
     inkscape:window-y="-8"
     inkscape:window-maximized="1"
     inkscape:current-layer="layer1" /><defs
     id="defs1" /><g
     inkscape:label="Layer 1"
     inkscape:groupmode="layer"
     id="layer1"
     transform="translate(20.98577,-24.983481)"><path
       style="fill:#000000"
       d="m 6.8881898,99.419321 c 0,-3.17579 -1.098486,-7.20508 -2.812752,-10.31727 -3.87154395,-7.02867 -10.870004,-13.13066 -21.1987988,-18.48332 -2.21953,-1.15022 -3.955858,-2.17096 -3.858507,-2.26831 0.09735,-0.0974 2.581527,-0.177 5.520391,-0.177 h 5.343389 L 2.9183328,53.868361 c 7.1700322,-7.86777 13.1240202,-14.20785 13.2310862,-14.08906 0.107065,0.1188 1.005679,3.22041 1.996919,6.89248 0.991241,3.67207 1.877555,6.79832 1.969587,6.94724 0.148061,0.23956 16.444536,6.62119 16.890067,6.61407 0.09734,-0.002 0.712771,-0.83372 1.367614,-1.84926 0.81596,-1.26539 1.357144,-1.84779 1.719792,-1.85076 1.948524,-0.016 8.728411,1.19999 10.654001,1.91077 5.183484,1.91336 8.891109,4.60879 9.779289,7.1095 0.5144,1.44834 0.55968,1.45435 2.71775,0.36063 2.54319,-1.28889 3.95713,-3.41228 3.95713,-5.94264 0,-3.65513 -2.66982,-5.99042 -8.05915,-7.04934 -1.23892,-0.24342 -2.22178,-0.47276 -2.18413,-0.50963 0.0376,-0.0369 3.28313,-2.10873 7.21219,-4.60413 6.79264,-4.31411 7.19577,-4.53017 8.20209,-4.39599 0.58208,0.0776 4.86833,0.39571 9.525,0.70689 9.08142,0.60686 9.89831,0.56397 11.3746,-0.59729 0.9453,-0.74357 1.45812,-2.00601 1.45595,-3.5842 -0.003,-2.05584 -1.20377,-3.37726 -4.42422,-4.86807 -1.53884,-0.71236 -1.86699,-0.76282 -4.96094,-0.76282 -2.06525,0 -3.3131,-0.10116 -3.3131,-0.26859 0,-0.14772 0.80128,-1.33834 1.78063,-2.64583 1.22552,-1.63614 1.94726,-2.37535 2.31511,-2.37117 0.29396,0.003 2.08228,0.23874 3.97405,0.52309 1.89177,0.28435 3.7829,0.51974 4.20252,0.52308 0.57307,0.005 1.55196,-0.62726 3.93343,-2.53888 l 3.170492,-2.54497 3.27441,3.26655 3.27441,3.26654 3.97236,-1.97207 3.97236,-1.97208 2.71495,2.70571 2.71494,2.7057 h 4.42725 c 2.43499,0 4.42726,0.0679 4.42726,0.15077 0,0.42696 -1.73784,2.57937 -3.05316,3.7815 -1.77106,1.61864 -2.57186,2.10606 -8.31916,5.06357 -3.98976,2.05308 -4.44497,2.36055 -5.22669,3.53024 -1.17759,1.76203 -1.49317,3.04232 -1.51028,6.12705 -0.0186,3.34959 0.66207,5.34821 2.50996,7.3701 2.41695,2.64452 1.99049,2.56047 16.65303,3.28231 7.06031,0.34758 12.92495,0.71704 13.03254,0.82102 0.10759,0.10398 -2.06666,2.1489 -4.83167,4.54427 -3.98136,3.44911 -5.00199,4.46531 -4.90571,4.88438 0.0669,0.29104 0.44909,1.42214 0.8494,2.51354 0.64506,1.7587 0.72937,2.36051 0.74135,5.29167 0.0113,2.7771 -0.0846,3.60003 -0.59828,5.13342 -0.70777,2.1126 -1.89076,4.5412 -3.04135,6.24366 -1.06329,1.57328 -3.8326,4.71451 -4.44552,5.04253 -0.38186,0.20437 -1.28551,-0.14068 -4.22539,-1.61343 -2.0568,-1.03036 -3.81625,-1.79841 -3.90988,-1.70678 -0.0936,0.0916 -0.71598,1.79543 -1.38301,3.78621 l -1.21277,3.619599 -29.015882,0.0673 -29.01587,0.0673 v -4.333529 c 0,-4.76998 -0.26751,-6.07078 -1.51659,-7.37454 -1.776664,-1.85444 -5.470485,-1.64294 -7.956526,0.45556 -1.679644,1.41781 -3.948821,5.28722 -5.356257,9.13351 l -0.726123,1.984379 -18.416001,0.0679 -18.4160012,0.0679 z"
       id="path1" /></g></svg>
